<svg xmlns="http://www.w3.org/2000/svg" xmlns:xlink="http://www.w3.org/1999/xlink" width="500" zoomAndPan="magnify" viewBox="0 0 375 374.999991" height="500" preserveAspectRatio="xMidYMid meet" version="1.0"><defs><g/><clipPath id="c85ca894ed"><path d="M 62.449219 21 L 126.949219 21 L 126.949219 256 L 62.449219 256 Z M 62.449219 21 " clip-rule="nonzero"/></clipPath><clipPath id="35c888a21e"><path d="M 248.390625 21 L 312.550781 21 L 312.550781 256 L 248.390625 256 Z M 248.390625 21 " clip-rule="nonzero"/></clipPath></defs><g clip-path="url(#c85ca894ed)"><path fill="#151f28" d="M 115.417969 108.714844 L 115.417969 57.101562 C 115.417969 50.042969 118.414062 46.234375 126.289062 46.234375 L 134.285156 46.234375 L 134.285156 21.785156 L 118.125 21.785156 C 104.273438 21.785156 85.527344 30.203125 85.527344 54.386719 L 85.527344 103.28125 C 85.527344 116.867188 74.65625 125.011719 63.796875 125.011719 C 63.285156 125.011719 62.828125 125.128906 62.449219 125.328125 L 62.449219 151.867188 C 62.839844 152.070312 63.285156 152.1875 63.796875 152.1875 C 74.667969 152.1875 85.527344 160.339844 85.527344 173.917969 L 85.527344 222.824219 C 85.527344 247.003906 104.273438 255.421875 118.125 255.421875 L 134.273438 255.421875 L 134.273438 230.976562 L 126.28125 230.976562 C 118.402344 230.976562 115.410156 227.175781 115.410156 220.105469 L 115.410156 168.492188 C 115.410156 149.480469 101.832031 141.328125 101.832031 141.328125 L 88.242188 138.609375 L 101.832031 135.890625 C 101.832031 135.882812 115.417969 127.738281 115.417969 108.714844 Z M 115.417969 108.714844 " fill-opacity="1" fill-rule="nonzero"/></g><g clip-path="url(#35c888a21e)"><path fill="#151f28" d="M 259.578125 108.714844 L 259.578125 57.101562 C 259.578125 50.042969 256.585938 46.234375 248.707031 46.234375 L 240.714844 46.234375 L 240.714844 21.785156 L 256.871094 21.785156 C 270.726562 21.785156 289.472656 30.203125 289.472656 54.386719 L 289.472656 103.28125 C 289.472656 116.867188 300.34375 125.011719 311.203125 125.011719 C 311.710938 125.011719 312.167969 125.128906 312.550781 125.328125 L 312.550781 151.867188 C 312.15625 152.070312 311.710938 152.1875 311.203125 152.1875 C 300.332031 152.1875 289.472656 160.339844 289.472656 173.917969 L 289.472656 222.824219 C 289.472656 247.003906 270.726562 255.421875 256.871094 255.421875 L 240.726562 255.421875 L 240.726562 230.976562 L 248.71875 230.976562 C 256.59375 230.976562 259.589844 227.175781 259.589844 220.105469 L 259.589844 168.492188 C 259.589844 149.480469 273.167969 141.328125 273.167969 141.328125 L 286.753906 138.609375 L 273.167969 135.890625 C 273.167969 135.882812 259.578125 127.738281 259.578125 108.714844 Z M 259.578125 108.714844 " fill-opacity="1" fill-rule="nonzero"/></g><path fill="#ef4136" d="M 183.152344 214.476562 C 183.152344 214.476562 137.136719 216.96875 123.976562 170.054688 L 134.203125 177.5625 C 134.203125 177.5625 121.414062 148.480469 149.792969 113.761719 L 153.574219 130.96875 C 153.574219 130.96875 150.414062 76.953125 210.289062 64.09375 C 210.289062 64.09375 196.253906 90.710938 220.886719 139.148438 C 220.886719 139.148438 221.195312 127.539062 232.109375 124.09375 C 232.109375 124.09375 230.117188 132.097656 236.820312 143.464844 C 245.957031 158.960938 245.25 178.507812 234.113281 192.628906 C 224.296875 205.070312 207.773438 215.0625 183.152344 214.476562 Z M 183.152344 214.476562 " fill-opacity="1" fill-rule="nonzero"/><path fill="#000000" d="M 181.875 216.371094 C 178.363281 216.371094 168.6875 215.933594 157.820312 211.597656 C 145.425781 206.65625 129.191406 195.535156 122.179688 170.570312 C 121.964844 169.800781 122.253906 168.980469 122.914062 168.523438 C 123.566406 168.066406 124.433594 168.074219 125.074219 168.550781 L 130.746094 172.714844 C 128.351562 162.425781 126.59375 139.1875 148.339844 112.578125 C 148.796875 112.027344 149.523438 111.773438 150.210938 111.941406 C 150.910156 112.109375 151.441406 112.660156 151.597656 113.351562 L 152.699219 118.339844 C 153.542969 113.5 155.0625 107.683594 157.761719 101.585938 C 164.058594 87.414062 178.195312 69.082031 209.898438 62.261719 C 210.605469 62.113281 211.332031 62.386719 211.769531 62.964844 C 212.207031 63.542969 212.273438 64.316406 211.929688 64.960938 C 211.796875 65.207031 199.617188 89.648438 220.171875 133.453125 C 221.734375 129.144531 225.117188 124.335938 231.550781 122.308594 C 232.191406 122.105469 232.902344 122.273438 233.386719 122.730469 C 233.878906 123.195312 234.082031 123.886719 233.917969 124.542969 C 233.898438 124.605469 232.25 132.042969 238.421875 142.511719 C 248.191406 159.082031 247.074219 179.207031 235.574219 193.789062 C 227.164062 204.445312 211.25 217.007812 183.179688 216.351562 C 182.992188 216.351562 182.546875 216.371094 181.875 216.371094 Z M 183.160156 212.605469 C 183.179688 212.605469 183.1875 212.605469 183.207031 212.605469 C 209.785156 213.234375 224.769531 201.457031 232.660156 191.460938 C 243.199219 178.105469 244.207031 159.640625 235.21875 144.40625 C 230.75 136.832031 229.949219 130.621094 229.976562 127.015625 C 223.113281 130.828125 222.769531 138.8125 222.75 139.195312 C 222.722656 140.046875 222.125 140.773438 221.296875 140.960938 C 220.457031 141.148438 219.621094 140.746094 219.230469 139.988281 C 199.226562 100.667969 204.226562 75.542969 207.214844 66.726562 C 184.875 72.351562 169.394531 84.585938 161.179688 103.117188 C 154.746094 117.648438 155.425781 130.734375 155.433594 130.863281 C 155.492188 131.835938 154.792969 132.6875 153.832031 132.824219 C 152.875 132.964844 151.972656 132.332031 151.757812 131.378906 L 148.824219 118.03125 C 141.550781 127.707031 133.792969 141.820312 133.222656 158.53125 C 132.851562 169.644531 135.878906 176.742188 135.90625 176.816406 C 136.242188 177.59375 136.019531 178.496094 135.367188 179.019531 C 134.703125 179.542969 133.78125 179.570312 133.101562 179.066406 L 127.515625 174.96875 C 133.328125 190.863281 143.914062 201.988281 159.058594 208.066406 C 171.695312 213.140625 182.945312 212.617188 183.058594 212.605469 C 183.085938 212.605469 183.121094 212.605469 183.160156 212.605469 Z M 183.160156 212.605469 " fill-opacity="1" fill-rule="nonzero"/><path fill="#ffdb00" d="M 173.503906 205.648438 C 159.570312 200.558594 142.59375 187.40625 151.308594 151.320312 C 151.589844 150.152344 153.144531 149.898438 153.769531 150.925781 C 156.375 155.269531 161.890625 163.292969 168.269531 165.953125 C 170.886719 167.046875 173.519531 164.433594 172.449219 161.796875 C 167.515625 149.695312 157.6875 116.460938 182.003906 85.835938 C 182.84375 84.78125 184.539062 85.472656 184.378906 86.808594 C 183.046875 98.222656 182.0625 127.699219 204.90625 139.148438 C 230.367188 151.917969 230.070312 196.898438 198.304688 206.640625 C 190.183594 209.125 181.472656 208.5625 173.503906 205.648438 Z M 173.503906 205.648438 " fill-opacity="1" fill-rule="nonzero"/><path fill="#ffffff" d="M 196.039062 198.71875 C 191.578125 204.855469 182.367188 205.304688 177.730469 199.296875 C 174.703125 195.382812 174.246094 189.3125 182.171875 180.132812 C 195.398438 164.816406 185.871094 146.996094 179.761719 138.484375 C 179.324219 137.871094 180.125 137.140625 180.683594 137.65625 C 191.484375 147.480469 214.636719 173.117188 196.039062 198.71875 Z M 196.039062 198.71875 " fill-opacity="1" fill-rule="nonzero"/><g fill="#f15a29" fill-opacity="1"><g transform="translate(7.815578, 324.881349)"><g><path d="M 16.296875 -33.265625 L 16.296875 -23.90625 L 35.09375 -23.90625 L 35.09375 -14.59375 L 16.296875 -14.59375 L 16.296875 0 L 4.25 0 L 4.25 -42.5625 L 37.640625 -42.5625 L 37.640625 -33.265625 Z M 16.296875 -33.265625 "/></g></g></g><g fill="#f15a29" fill-opacity="1"><g transform="translate(46.855856, 324.881349)"><g><path d="M 4.25 -42.5625 L 16.296875 -42.5625 L 16.296875 0 L 4.25 0 Z M 4.25 -42.5625 "/></g></g></g><g fill="#f15a29" fill-opacity="1"><g transform="translate(67.470588, 324.881349)"><g><path d="M 22.859375 -11.3125 L 16.296875 -11.3125 L 16.296875 0 L 4.25 0 L 4.25 -42.5625 L 23.71875 -42.5625 C 27.570312 -42.5625 30.914062 -41.921875 33.75 -40.640625 C 36.582031 -39.367188 38.769531 -37.546875 40.3125 -35.171875 C 41.851562 -32.804688 42.625 -30.019531 42.625 -26.8125 C 42.625 -23.738281 41.90625 -21.054688 40.46875 -18.765625 C 39.03125 -16.472656 36.972656 -14.675781 34.296875 -13.375 L 43.484375 0 L 30.59375 0 Z M 30.46875 -26.8125 C 30.46875 -28.800781 29.835938 -30.34375 28.578125 -31.4375 C 27.328125 -32.53125 25.460938 -33.078125 22.984375 -33.078125 L 16.296875 -33.078125 L 16.296875 -20.609375 L 22.984375 -20.609375 C 25.460938 -20.609375 27.328125 -21.144531 28.578125 -22.21875 C 29.835938 -23.300781 30.46875 -24.832031 30.46875 -26.8125 Z M 30.46875 -26.8125 "/></g></g></g><g fill="#f15a29" fill-opacity="1"><g transform="translate(112.470297, 324.881349)"><g><path d="M 38.4375 -9.296875 L 38.4375 0 L 4.25 0 L 4.25 -42.5625 L 37.640625 -42.5625 L 37.640625 -33.265625 L 16.171875 -33.265625 L 16.171875 -26.09375 L 35.09375 -26.09375 L 35.09375 -17.09375 L 16.171875 -17.09375 L 16.171875 -9.296875 Z M 38.4375 -9.296875 "/></g></g></g><g fill="#000000" fill-opacity="1"><g transform="translate(153.353212, 324.881349)"><g><path d="M 71.03125 -42.5625 L 57.21875 0 L 44.328125 0 L 36.1875 -25.90625 L 27.671875 0 L 14.78125 0 L 0.96875 -42.5625 L 13.375 -42.5625 L 21.953125 -15.390625 L 30.953125 -42.5625 L 42.015625 -42.5625 L 50.59375 -15.140625 L 59.53125 -42.5625 Z M 71.03125 -42.5625 "/></g></g></g><g fill="#000000" fill-opacity="1"><g transform="translate(225.352741, 324.881349)"><g><path d="M 25.71875 0.84375 C 21.21875 0.84375 17.171875 -0.101562 13.578125 -2 C 9.992188 -3.90625 7.175781 -6.539062 5.125 -9.90625 C 3.082031 -13.269531 2.0625 -17.0625 2.0625 -21.28125 C 2.0625 -25.5 3.082031 -29.289062 5.125 -32.65625 C 7.175781 -36.019531 9.992188 -38.65625 13.578125 -40.5625 C 17.171875 -42.46875 21.21875 -43.421875 25.71875 -43.421875 C 30.21875 -43.421875 34.257812 -42.46875 37.84375 -40.5625 C 41.4375 -38.65625 44.253906 -36.019531 46.296875 -32.65625 C 48.347656 -29.289062 49.375 -25.5 49.375 -21.28125 C 49.375 -17.0625 48.347656 -13.269531 46.296875 -9.90625 C 44.253906 -6.539062 41.4375 -3.90625 37.84375 -2 C 34.257812 -0.101562 30.21875 0.84375 25.71875 0.84375 Z M 25.71875 -9.125 C 27.875 -9.125 29.820312 -9.628906 31.5625 -10.640625 C 33.300781 -11.648438 34.675781 -13.078125 35.6875 -14.921875 C 36.707031 -16.773438 37.21875 -18.894531 37.21875 -21.28125 C 37.21875 -23.675781 36.707031 -25.796875 35.6875 -27.640625 C 34.675781 -29.484375 33.300781 -30.910156 31.5625 -31.921875 C 29.820312 -32.941406 27.875 -33.453125 25.71875 -33.453125 C 23.570312 -33.453125 21.625 -32.941406 19.875 -31.921875 C 18.132812 -30.910156 16.757812 -29.484375 15.75 -27.640625 C 14.738281 -25.796875 14.234375 -23.675781 14.234375 -21.28125 C 14.234375 -18.894531 14.738281 -16.773438 15.75 -14.921875 C 16.757812 -13.078125 18.132812 -11.648438 19.875 -10.640625 C 21.625 -9.628906 23.570312 -9.125 25.71875 -9.125 Z M 25.71875 -9.125 "/></g></g></g><g fill="#000000" fill-opacity="1"><g transform="translate(276.798337, 324.881349)"><g><path d="M 22.859375 -11.3125 L 16.296875 -11.3125 L 16.296875 0 L 4.25 0 L 4.25 -42.5625 L 23.71875 -42.5625 C 27.570312 -42.5625 30.914062 -41.921875 33.75 -40.640625 C 36.582031 -39.367188 38.769531 -37.546875 40.3125 -35.171875 C 41.851562 -32.804688 42.625 -30.019531 42.625 -26.8125 C 42.625 -23.738281 41.90625 -21.054688 40.46875 -18.765625 C 39.03125 -16.472656 36.972656 -14.675781 34.296875 -13.375 L 43.484375 0 L 30.59375 0 Z M 30.46875 -26.8125 C 30.46875 -28.800781 29.835938 -30.34375 28.578125 -31.4375 C 27.328125 -32.53125 25.460938 -33.078125 22.984375 -33.078125 L 16.296875 -33.078125 L 16.296875 -20.609375 L 22.984375 -20.609375 C 25.460938 -20.609375 27.328125 -21.144531 28.578125 -22.21875 C 29.835938 -23.300781 30.46875 -24.832031 30.46875 -26.8125 Z M 30.46875 -26.8125 "/></g></g></g><g fill="#000000" fill-opacity="1"><g transform="translate(321.798046, 324.881349)"><g><path d="M 20.671875 -15.453125 L 16.171875 -10.640625 L 16.171875 0 L 4.25 0 L 4.25 -42.5625 L 16.171875 -42.5625 L 16.171875 -24.875 L 32.65625 -42.5625 L 45.90625 -42.5625 L 28.515625 -23.71875 L 46.828125 0 L 32.84375 0 Z M 20.671875 -15.453125 "/></g></g></g><g fill="#000000" fill-opacity="1"><g transform="translate(76.531623, 362.433265)"><g/></g></g><g fill="#000000" fill-opacity="1"><g transform="translate(83.241314, 362.433265)"><g><path d="M 3.65625 -15.59375 C 5.507812 -17.351562 7.789062 -18.234375 10.5 -18.234375 C 13.21875 -18.234375 15.5 -17.351562 17.34375 -15.59375 C 19.195312 -13.84375 20.125 -11.671875 20.125 -9.078125 C 20.125 -6.484375 19.195312 -4.300781 17.34375 -2.53125 C 15.5 -0.757812 13.21875 0.125 10.5 0.125 C 7.789062 0.125 5.507812 -0.757812 3.65625 -2.53125 C 1.800781 -4.300781 0.875 -6.484375 0.875 -9.078125 C 0.875 -11.671875 1.800781 -13.84375 3.65625 -15.59375 Z M 10.53125 -15.484375 C 8.726562 -15.484375 7.1875 -14.863281 5.90625 -13.625 C 4.632812 -12.394531 4 -10.878906 4 -9.078125 C 4 -7.273438 4.640625 -5.75 5.921875 -4.5 C 7.210938 -3.25 8.75 -2.625 10.53125 -2.625 C 12.3125 -2.625 13.832031 -3.25 15.09375 -4.5 C 16.351562 -5.75 16.984375 -7.273438 16.984375 -9.078125 C 16.984375 -10.878906 16.351562 -12.394531 15.09375 -13.625 C 13.832031 -14.863281 12.3125 -15.484375 10.53125 -15.484375 Z M 10.53125 -15.484375 "/></g></g></g><g fill="#000000" fill-opacity="1"><g transform="translate(104.237661, 362.433265)"><g><path d="M 7.59375 -16.78125 C 7.0625 -16.78125 6.617188 -16.625 6.265625 -16.3125 C 5.910156 -16 5.734375 -15.535156 5.734375 -14.921875 L 5.734375 -13.28125 L 9.34375 -13.28125 L 9.34375 -11.046875 L 5.734375 -11.046875 L 5.734375 0 L 2.78125 0 L 2.78125 -11.046875 L 0.953125 -11.046875 L 0.953125 -13.28125 L 2.78125 -13.28125 L 2.78125 -14.625 C 2.78125 -16.144531 3.242188 -17.316406 4.171875 -18.140625 C 5.109375 -18.960938 6.222656 -19.375 7.515625 -19.375 C 8.734375 -19.375 9.773438 -19.054688 10.640625 -18.421875 L 9.5 -16.140625 C 8.90625 -16.566406 8.269531 -16.78125 7.59375 -16.78125 Z M 7.59375 -16.78125 "/></g></g></g><g fill="#000000" fill-opacity="1"><g transform="translate(113.128697, 362.433265)"><g/></g></g><g fill="#000000" fill-opacity="1"><g transform="translate(119.816407, 362.433265)"><g><path d="M 2.390625 -18.15625 L 9.625 -18.15625 C 11.90625 -18.15625 13.671875 -17.613281 14.921875 -16.53125 C 16.179688 -15.457031 16.8125 -13.929688 16.8125 -11.953125 C 16.8125 -9.898438 16.179688 -8.304688 14.921875 -7.171875 C 13.671875 -6.035156 11.90625 -5.46875 9.625 -5.46875 L 5.453125 -5.46875 L 5.453125 0 L 2.390625 0 Z M 5.453125 -15.40625 L 5.453125 -8.21875 L 9.5 -8.21875 C 12.414062 -8.21875 13.875 -9.4375 13.875 -11.875 C 13.875 -14.226562 12.414062 -15.40625 9.5 -15.40625 Z M 5.453125 -15.40625 "/></g></g></g><g fill="#000000" fill-opacity="1"><g transform="translate(137.261503, 362.433265)"><g><path d="M 5.1875 -13.796875 L 5.1875 -11.046875 C 6.132812 -12.953125 7.722656 -13.90625 9.953125 -13.90625 L 9.953125 -11.046875 C 8.585938 -11.117188 7.484375 -10.800781 6.640625 -10.09375 C 5.796875 -9.382812 5.3125 -8.421875 5.1875 -7.203125 L 5.1875 0 L 2.203125 0 L 2.203125 -13.796875 Z M 5.1875 -13.796875 "/></g></g></g><g fill="#000000" fill-opacity="1"><g transform="translate(147.474534, 362.433265)"><g><path d="M 10.484375 0 L 10.484375 -1.6875 C 9.492188 -0.476562 7.96875 0.125 5.90625 0.125 C 4.4375 0.125 3.257812 -0.273438 2.375 -1.078125 C 1.5 -1.878906 1.0625 -2.90625 1.0625 -4.15625 C 1.0625 -5.414062 1.519531 -6.414062 2.4375 -7.15625 C 3.351562 -7.90625 4.632812 -8.285156 6.28125 -8.296875 L 10.453125 -8.296875 L 10.453125 -8.71875 C 10.453125 -9.59375 10.171875 -10.269531 9.609375 -10.75 C 9.046875 -11.238281 8.226562 -11.484375 7.15625 -11.484375 C 5.820312 -11.484375 4.46875 -11.019531 3.09375 -10.09375 L 1.875 -12.171875 C 2.925781 -12.785156 3.867188 -13.226562 4.703125 -13.5 C 5.546875 -13.769531 6.582031 -13.90625 7.8125 -13.90625 C 9.570312 -13.90625 10.9375 -13.472656 11.90625 -12.609375 C 12.875 -11.753906 13.367188 -10.566406 13.390625 -9.046875 L 13.40625 0 Z M 6.53125 -2.234375 C 7.59375 -2.234375 8.488281 -2.476562 9.21875 -2.96875 C 9.957031 -3.457031 10.367188 -4.082031 10.453125 -4.84375 L 10.453125 -6.125 L 6.71875 -6.125 C 5.726562 -6.125 5.003906 -5.976562 4.546875 -5.6875 C 4.085938 -5.40625 3.859375 -4.9375 3.859375 -4.28125 C 3.859375 -3.65625 4.097656 -3.15625 4.578125 -2.78125 C 5.054688 -2.414062 5.707031 -2.234375 6.53125 -2.234375 Z M 6.53125 -2.234375 "/></g></g></g><g fill="#000000" fill-opacity="1"><g transform="translate(162.664473, 362.433265)"><g><path d="M 10.265625 -13.90625 C 11.878906 -13.90625 13.140625 -13.429688 14.046875 -12.484375 C 14.953125 -11.546875 15.40625 -10.242188 15.40625 -8.578125 L 15.40625 0 L 12.421875 0 L 12.421875 -7.75 C 12.421875 -8.789062 12.125 -9.609375 11.53125 -10.203125 C 10.945312 -10.796875 10.140625 -11.09375 9.109375 -11.09375 C 7.992188 -11.082031 7.085938 -10.726562 6.390625 -10.03125 C 5.691406 -9.34375 5.289062 -8.445312 5.1875 -7.34375 L 5.1875 0 L 2.203125 0 L 2.203125 -13.796875 L 5.1875 -13.796875 L 5.1875 -11.15625 C 6.125 -12.988281 7.816406 -13.90625 10.265625 -13.90625 Z M 10.265625 -13.90625 "/></g></g></g><g fill="#000000" fill-opacity="1"><g transform="translate(179.850357, 362.433265)"><g><path d="M 10.484375 0 L 10.484375 -1.6875 C 9.492188 -0.476562 7.96875 0.125 5.90625 0.125 C 4.4375 0.125 3.257812 -0.273438 2.375 -1.078125 C 1.5 -1.878906 1.0625 -2.90625 1.0625 -4.15625 C 1.0625 -5.414062 1.519531 -6.414062 2.4375 -7.15625 C 3.351562 -7.90625 4.632812 -8.285156 6.28125 -8.296875 L 10.453125 -8.296875 L 10.453125 -8.71875 C 10.453125 -9.59375 10.171875 -10.269531 9.609375 -10.75 C 9.046875 -11.238281 8.226562 -11.484375 7.15625 -11.484375 C 5.820312 -11.484375 4.46875 -11.019531 3.09375 -10.09375 L 1.875 -12.171875 C 2.925781 -12.785156 3.867188 -13.226562 4.703125 -13.5 C 5.546875 -13.769531 6.582031 -13.90625 7.8125 -13.90625 C 9.570312 -13.90625 10.9375 -13.472656 11.90625 -12.609375 C 12.875 -11.753906 13.367188 -10.566406 13.390625 -9.046875 L 13.40625 0 Z M 6.53125 -2.234375 C 7.59375 -2.234375 8.488281 -2.476562 9.21875 -2.96875 C 9.957031 -3.457031 10.367188 -4.082031 10.453125 -4.84375 L 10.453125 -6.125 L 6.71875 -6.125 C 5.726562 -6.125 5.003906 -5.976562 4.546875 -5.6875 C 4.085938 -5.40625 3.859375 -4.9375 3.859375 -4.28125 C 3.859375 -3.65625 4.097656 -3.15625 4.578125 -2.78125 C 5.054688 -2.414062 5.707031 -2.234375 6.53125 -2.234375 Z M 6.53125 -2.234375 "/></g></g></g><g fill="#000000" fill-opacity="1"><g transform="translate(195.040296, 362.433265)"><g><path d="M 13.90625 -13.796875 L 7.625 1.890625 C 6.78125 4.066406 5.285156 5.15625 3.140625 5.15625 C 1.941406 5.15625 0.878906 4.769531 -0.046875 4 L 1.21875 1.6875 C 1.84375 2.132812 2.441406 2.359375 3.015625 2.359375 C 3.941406 2.359375 4.640625 1.847656 5.109375 0.828125 L 5.578125 -0.203125 L -0.125 -13.796875 L 2.953125 -13.796875 L 7.078125 -3.34375 L 10.921875 -13.796875 Z M 13.90625 -13.796875 "/></g></g></g><g fill="#000000" fill-opacity="1"><g transform="translate(208.804549, 362.433265)"><g/></g></g><g fill="#000000" fill-opacity="1"><g transform="translate(215.492259, 362.433265)"><g><path d="M 2.390625 -18.15625 L 9.625 -18.15625 C 11.90625 -18.15625 13.671875 -17.613281 14.921875 -16.53125 C 16.179688 -15.457031 16.8125 -13.929688 16.8125 -11.953125 C 16.8125 -9.898438 16.179688 -8.304688 14.921875 -7.171875 C 13.671875 -6.035156 11.90625 -5.46875 9.625 -5.46875 L 5.453125 -5.46875 L 5.453125 0 L 2.390625 0 Z M 5.453125 -15.40625 L 5.453125 -8.21875 L 9.5 -8.21875 C 12.414062 -8.21875 13.875 -9.4375 13.875 -11.875 C 13.875 -14.226562 12.414062 -15.40625 9.5 -15.40625 Z M 5.453125 -15.40625 "/></g></g></g><g fill="#000000" fill-opacity="1"><g transform="translate(232.937356, 362.433265)"><g><path d="M 10.484375 0 L 10.484375 -1.6875 C 9.492188 -0.476562 7.96875 0.125 5.90625 0.125 C 4.4375 0.125 3.257812 -0.273438 2.375 -1.078125 C 1.5 -1.878906 1.0625 -2.90625 1.0625 -4.15625 C 1.0625 -5.414062 1.519531 -6.414062 2.4375 -7.15625 C 3.351562 -7.90625 4.632812 -8.285156 6.28125 -8.296875 L 10.453125 -8.296875 L 10.453125 -8.71875 C 10.453125 -9.59375 10.171875 -10.269531 9.609375 -10.75 C 9.046875 -11.238281 8.226562 -11.484375 7.15625 -11.484375 C 5.820312 -11.484375 4.46875 -11.019531 3.09375 -10.09375 L 1.875 -12.171875 C 2.925781 -12.785156 3.867188 -13.226562 4.703125 -13.5 C 5.546875 -13.769531 6.582031 -13.90625 7.8125 -13.90625 C 9.570312 -13.90625 10.9375 -13.472656 11.90625 -12.609375 C 12.875 -11.753906 13.367188 -10.566406 13.390625 -9.046875 L 13.40625 0 Z M 6.53125 -2.234375 C 7.59375 -2.234375 8.488281 -2.476562 9.21875 -2.96875 C 9.957031 -3.457031 10.367188 -4.082031 10.453125 -4.84375 L 10.453125 -6.125 L 6.71875 -6.125 C 5.726562 -6.125 5.003906 -5.976562 4.546875 -5.6875 C 4.085938 -5.40625 3.859375 -4.9375 3.859375 -4.28125 C 3.859375 -3.65625 4.097656 -3.15625 4.578125 -2.78125 C 5.054688 -2.414062 5.707031 -2.234375 6.53125 -2.234375 Z M 6.53125 -2.234375 "/></g></g></g><g fill="#000000" fill-opacity="1"><g transform="translate(248.127295, 362.433265)"><g><path d="M 5.1875 -13.796875 L 5.1875 -11.046875 C 6.132812 -12.953125 7.722656 -13.90625 9.953125 -13.90625 L 9.953125 -11.046875 C 8.585938 -11.117188 7.484375 -10.800781 6.640625 -10.09375 C 5.796875 -9.382812 5.3125 -8.421875 5.1875 -7.203125 L 5.1875 0 L 2.203125 0 L 2.203125 -13.796875 Z M 5.1875 -13.796875 "/></g></g></g><g fill="#000000" fill-opacity="1"><g transform="translate(258.340326, 362.433265)"><g><path d="M 2.4375 -19.046875 C 2.769531 -19.390625 3.1875 -19.5625 3.6875 -19.5625 C 4.1875 -19.5625 4.597656 -19.390625 4.921875 -19.046875 C 5.253906 -18.710938 5.421875 -18.273438 5.421875 -17.734375 C 5.421875 -17.222656 5.253906 -16.796875 4.921875 -16.453125 C 4.597656 -16.117188 4.1875 -15.953125 3.6875 -15.953125 C 3.1875 -15.953125 2.769531 -16.117188 2.4375 -16.453125 C 2.113281 -16.796875 1.953125 -17.222656 1.953125 -17.734375 C 1.953125 -18.273438 2.113281 -18.710938 2.4375 -19.046875 Z M 5.15625 0 L 2.203125 0 L 2.203125 -13.796875 L 5.15625 -13.796875 Z M 5.15625 0 "/></g></g></g><g fill="#000000" fill-opacity="1"><g transform="translate(265.702012, 362.433265)"><g><path d="M 7.65625 -6.328125 L 5.3125 -3.859375 L 5.3125 0 L 2.328125 0 L 2.328125 -19.25 L 5.3125 -19.25 L 5.3125 -7.625 L 11.40625 -13.796875 L 14.84375 -13.796875 L 9.734375 -8.453125 L 15.21875 0 L 11.703125 0 Z M 7.65625 -6.328125 "/></g></g></g><g fill="#000000" fill-opacity="1"><g transform="translate(281.125235, 362.433265)"><g><path d="M 10.421875 -13.90625 C 12.035156 -13.90625 13.296875 -13.429688 14.203125 -12.484375 C 15.109375 -11.546875 15.5625 -10.242188 15.5625 -8.578125 L 15.5625 0 L 12.578125 0 L 12.578125 -7.75 C 12.578125 -8.789062 12.28125 -9.609375 11.6875 -10.203125 C 11.101562 -10.796875 10.296875 -11.09375 9.265625 -11.09375 C 8.046875 -11.082031 7.082031 -10.671875 6.375 -9.859375 C 5.664062 -9.054688 5.3125 -8.035156 5.3125 -6.796875 L 5.3125 0 L 2.328125 0 L 2.328125 -19.25 L 5.3125 -19.25 L 5.3125 -11.09375 C 6.269531 -12.96875 7.972656 -13.90625 10.421875 -13.90625 Z M 10.421875 -13.90625 "/></g></g></g></svg>