<?xml version="1.0" encoding="UTF-8"?>
<!DOCTYPE svg PUBLIC "-//W3C//DTD SVG 1.1//EN" "http://www.w3.org/Graphics/SVG/1.1/DTD/svg11.dtd">
<!-- Creator: CorelDRAW 2020 (64-Bit) -->
<svg xmlns="http://www.w3.org/2000/svg" xml:space="preserve" width="20in" height="20in" version="1.1" style="shape-rendering:geometricPrecision; text-rendering:geometricPrecision; image-rendering:optimizeQuality; fill-rule:evenodd; clip-rule:evenodd"
viewBox="0 0 19999.99 19999.99"
 xmlns:xlink="http://www.w3.org/1999/xlink"
 xmlns:xodm="http://www.corel.com/coreldraw/odm/2003">
 <defs>
  <style type="text/css">
   <![CDATA[
    .fil0 {fill:#373F47;fill-rule:nonzero}
   ]]>
  </style>
 </defs>
 <g id="Layer_x0020_1">
  <metadata id="CorelCorpID_0Corel-Layer"/>
  <g id="_2769099631344">
   <path class="fil0" d="M15658.93 12249.67c-1522.53,836.06 -4332.78,2273.97 -5655.48,2276.4 -1328.39,2.43 -4161.64,-1434.97 -5688.11,-2265.87 -625,262.21 -1038.63,442.27 -1038.63,442.27 -649.53,562.35 -649.53,1474.1 0,2036.47 0,0 4845.11,2844.48 6713.18,2841.04 1864.86,-3.41 6687.71,-2860.82 6687.71,-2860.82 649.53,-562.37 649.53,-1474.13 0,-2036.47 0,0 -405.72,-176.01 -1018.67,-433.02z"/>
   <path class="fil0" d="M15686.65 8286.01c-1522.57,836.02 -4332.81,2273.96 -5655.51,2276.39 -1328.36,2.43 -4161.65,-1434.96 -5688.11,-2265.86 -624.97,262.2 -1038.63,442.27 -1038.63,442.27 -649.53,562.33 -649.53,1474.09 0,2036.47 0,0 4845.11,2844.47 6713.21,2841.03 1864.86,-3.41 6687.67,-2860.81 6687.67,-2860.81 649.53,-562.37 649.53,-1474.13 0,-2036.47 0,0 -405.7,-176.02 -1018.62,-433.02z"/>
   <path class="fil0" d="M16723.29 6881.87c0,0 -4822.8,2857.4 -6687.67,2860.81 -1868.1,3.48 -6713.21,-2841.03 -6713.21,-2841.03 -649.54,-562.34 -649.54,-1474.1 0,-2036.44 0,0 5615.93,-2445.22 6758.88,-2445.22 1051.57,0 6642,2425.43 6642,2425.43 649.53,562.33 649.53,1474.09 0,2036.44z"/>
  </g>
 </g>
</svg>
